<svg width="48" height="48" viewBox="0 0 48 48" fill="none" xmlns="http://www.w3.org/2000/svg">
<path fill-rule="evenodd" clip-rule="evenodd" d="M45.712 13.824C42.992 24.344 33.482 33.742 20.63 38.71C22.584 41.256 28.772 45.474 32.304 46.494C41.46 43.112 48 34.332 48 24C48 20.358 47.164 16.916 45.712 13.824ZM15.264 27.222C15.502 30.298 16.49 33.064 17.974 35.41C31.608 30.52 41.142 20.236 42.922 9.276C41.274 7.16 39.286 5.326 37.03 3.864C34.156 17.684 21.736 24.554 15.264 27.222V27.222ZM11.174 25.132C8.742 22.312 5.966 20.164 0.48 19.212C0.166 20.76 0 22.36 0 24C0 37.256 10.744 48 24 48C24.992 48 25.962 47.922 26.922 47.806C20.416 45.16 10.858 36.468 11.174 25.132V25.132ZM14.734 23.088C17.152 22.02 20.214 20.408 23.178 18.118C18.808 12.438 12.7 8.124 6.674 7.42C4.504 9.686 2.782 12.376 1.63 15.356C8.398 16.65 11.884 19.66 14.734 23.088V23.088ZM10.022 4.518C13.96 1.686 18.778 0 24 0C27.294 0 30.432 0.666 33.29 1.868C32.39 7.59 29.62 12.072 26.216 15.454C22.006 10.104 15.81 5.894 10.022 4.518Z" fill="#0F172A"/>
</svg>
